<mxfile host="syn.pineapple.ws" modified="2023-06-13T15:48:28.717Z" agent="Mozilla/5.0 (Macintosh; Intel Mac OS X 10_15_7) AppleWebKit/605.1.15 (KHTML, like Gecko) Safari/601.6.17" etag="BIpU5xpSOC6yKdj4gPof" version="21.3.7">  <diagram name="Page-1" id="jKVUaNlxTiOjLkeG01SD">    <mxGraphModel dx="1113" dy="764" grid="1" gridSize="10" guides="1" tooltips="1" connect="1" arrows="1" fold="1" page="1" pageScale="1" pageWidth="827" pageHeight="1169" math="0" shadow="0">      <root>        <mxCell id="0" />        <mxCell id="1" parent="0" />        <mxCell id="XC7xytDiFLmK0Vs_5QCx-3" value="" style="edgeStyle=orthogonalEdgeStyle;rounded=0;orthogonalLoop=1;jettySize=auto;html=1;" edge="1" parent="1" source="XC7xytDiFLmK0Vs_5QCx-1" target="XC7xytDiFLmK0Vs_5QCx-2">          <mxGeometry relative="1" as="geometry" />        </mxCell>        <mxCell id="XC7xytDiFLmK0Vs_5QCx-1" value="" style="rounded=0;whiteSpace=wrap;html=1;" vertex="1" parent="1">          <mxGeometry x="350" y="210" width="120" height="60" as="geometry" />        </mxCell>        <mxCell id="XC7xytDiFLmK0Vs_5QCx-2" value="" style="ellipse;whiteSpace=wrap;html=1;rounded=0;" vertex="1" parent="1">          <mxGeometry x="370" y="340" width="80" height="80" as="geometry" />        </mxCell>      </root>    </mxGraphModel>  </diagram></mxfile>
